:SAMPLES-PER-SECOND 30
:FULLY-SPECIFIED
:DEGREES
603
root  48.3067 33.3896 -76.1685 4.46631 47.6026 -4.49963
RightUpLeg  -20.7823 6.63924 1.39825
RightLeg  27.173 -5.18971 -2.25635
RightFoot  -0.0654508 -0.000225088 -0.0167045
RightToes  -36.1396 -0.192227 -0.293165
Spine  6.89458 -1.60342 -1.63772
Spine1  12.1054 -3.20841 -2.81297
HEad  -6.88877 -27.9591 36.478
LeftShoulder1  0 -2.42657e-020 -4.95415e-022
LeftArm  -38.8629 -12.0124 -56.3701
LeftForeArm  50.5783 -13.8333 -2.45913
LeftHand  0.27655 -8.07918 -4.28805
RightShoulder  0 2.42657e-020 1.07489e-018
RightArm  -77.2962 5.98168 87.732
RightForeArm  -31.0667 33.5927 6.63108
RightHand  4.19431 17.4999 27.1452
LeftUpLeg  -23.643 6.43952 3.33529
LeftLeg  24.7268 -5.64906 -2.17198
LeftFoot  2.18758 0.00598403 -0.297001
LeftToes  -19.1329 2.34596e-006 -6.06653e-008
604
root  48.114 33.3409 -76.4084 5.05322 45.1845 -4.1104
RightUpLeg  -19.8921 5.96743 0.885812
RightLeg  27.7295 -6.11264 -2.72549
RightFoot  -1.1487 -0.00257966 0.120291
RightToes  -35.674 -0.193062 -0.294194
Spine  6.91903 -1.80503 -1.7762
Spine1  12.0946 -3.78076 -2.71201
HEad  -6.08963 -27.9389 35.9127
LeftShoulder1  0 -2.42657e-020 -4.95415e-022
LeftArm  -39.5449 -13.7016 -55.3043
LeftForeArm  50.3268 -14.274 -2.54191
LeftHand  0.26023 -7.97516 -4.10529
RightShoulder  0 2.42657e-020 1.07489e-018
RightArm  -78.0325 5.13652 88.7055
RightForeArm  -30.573 33.329 6.56562
RightHand  4.13371 16.923 27.6523
LeftUpLeg  -24.2448 8.20511 2.97185
LeftLeg  25.1746 -4.99681 -1.96733
LeftFoot  2.07516 0.00576532 -0.279449
LeftToes  -19.0155 2.34596e-006 -6.06653e-008
605
root  47.8856 33.306 -76.6496 5.70811 42.2957 -3.66283
RightUpLeg  -19.1686 4.9179 -0.246764
RightLeg  27.9586 -6.41676 -2.89081
RightFoot  -2.01536 -0.00209278 0.258658
RightToes  -35.4925 -0.193418 -0.294982
Spine  6.97913 -1.79705 -1.81417
Spine1  12.1619 -3.83078 -2.62038
HEad  -5.43563 -27.5108 35.0115
LeftShoulder1  0 -2.42657e-020 -4.95415e-022
LeftArm  -40.5618 -14.9586 -54.9276
LeftForeArm  49.4775 -15.03 -2.68541
LeftHand  0.23829 -7.82762 -3.85529
RightShoulder  0 2.42657e-020 1.07489e-018
RightArm  -78.539 4.72136 89.6433
RightForeArm  -30.546 32.7566 6.42156
RightHand  4.3023 17.6679 27.5541
LeftUpLeg  -24.6891 9.90959 2.65748
LeftLeg  25.3152 -3.93648 -1.56265
LeftFoot  2.11775 0.00547209 -0.258944
LeftToes  -18.7266 2.34596e-006 -6.06653e-008
606
root  47.6224 33.2665 -76.8978 6.33087 38.9031 -3.13304
RightUpLeg  -18.6575 4.10388 -2.00472
RightLeg  27.9222 -6.62374 -2.97814
RightFoot  -2.55728 -0.000178514 0.369652
RightToes  -35.7903 -0.19345 -0.29533
Spine  7.03991 -1.62832 -1.7885
Spine1  12.2442 -3.48356 -2.55639
HEad  -4.67376 -26.9977 33.7983
LeftShoulder1  0 -2.42657e-020 -4.95415e-022
LeftArm  -41.3076 -15.5649 -55.1644
LeftForeArm  47.9887 -16.0455 -2.88037
LeftHand  0.214425 -7.65134 -3.57895
RightShoulder  0 2.42657e-020 1.07489e-018
RightArm  -79.1047 4.5524 90.2852
RightForeArm  -29.9965 32.1037 6.2612
RightHand  4.26114 17.4505 27.6318
LeftUpLeg  -24.8679 12.2926 2.22346
LeftLeg  25.1534 -2.86845 -1.13069
LeftFoot  2.06684 0.00474878 -0.231102
LeftToes  -18.1254 2.34596e-006 -6.06653e-008
607
root  47.3424 33.2267 -77.1287 7.09633 35.271 -2.39345
RightUpLeg  -18.4351 2.52366 -4.2987
RightLeg  27.4756 -6.43997 -2.83598
RightFoot  -2.71554 0.00119494 0.428074
RightToes  -36.7842 -0.193317 -0.295038
Spine  7.05558 -1.39469 -1.76814
Spine1  12.2487 -2.94787 -2.61486
HEad  -3.78165 -26.7905 32.7486
LeftShoulder1  0 -2.42657e-020 -4.95415e-022
LeftArm  -41.371 -15.5861 -55.8447
LeftForeArm  46.1114 -17.0402 -3.07389
LeftHand  0.186643 -7.54108 -3.20439
RightShoulder  0 2.42657e-020 1.07489e-018
RightArm  -79.4348 4.58221 90.8681
RightForeArm  -29.1578 31.1608 6.0338
RightHand  4.38278 17.7167 27.9691
LeftUpLeg  -24.9809 14.4106 1.7995
LeftLeg  24.9108 -1.83327 -0.714992
LeftFoot  2.51583 0.00518831 -0.221818
LeftToes  -19.2518 2.34596e-006 -6.06653e-008
608
root  47.0024 33.1743 -77.3188 7.64301 31.7282 -1.92746
RightUpLeg  -18.3811 0.388788 -6.3772
RightLeg  26.7341 -6.32583 -2.68872
RightFoot  -2.39455 0.00113451 0.431959
RightToes  -36.5913 -0.191841 -0.293907
Spine  7.04942 -1.16457 -1.62247
Spine1  12.2293 -2.36341 -2.58524
HEad  -2.62866 -26.9549 32.302
LeftShoulder1  0 -2.42657e-020 -4.95415e-022
LeftArm  -40.861 -15.3829 -56.8721
LeftForeArm  44.4926 -17.7849 -3.22035
LeftHand  0.182243 -7.52302 -3.14426
RightShoulder  0 2.42657e-020 1.07489e-018
RightArm  -80.6844 5.0318 91.5078
RightForeArm  -28.0756 29.9802 5.75557
RightHand  4.54645 17.2376 29.7324
LeftUpLeg  -25.2598 16.9588 1.55995
LeftLeg  24.9402 -0.949589 -0.372421
LeftFoot  2.65566 0.0045901 -0.198037
LeftToes  -19.615 2.34596e-006 -6.06653e-008
